<svg xmlns="http://www.w3.org/2000/svg" viewBox="0 0 1180 360" role="img" aria-label="NextAura AI Logo">
  <defs>
    <linearGradient id="markGradient" x1="152" y1="76" x2="360" y2="264" gradientUnits="userSpaceOnUse">
      <stop stop-color="#C084FC"/>
      <stop offset="0.43" stop-color="#7C3AED"/>
      <stop offset="1" stop-color="#0EA5E9"/>
    </linearGradient>
    <linearGradient id="aiGradient" x1="884" y1="176" x2="1068" y2="176" gradientUnits="userSpaceOnUse">
      <stop stop-color="#9333EA"/>
      <stop offset="0.55" stop-color="#7C3AED"/>
      <stop offset="1" stop-color="#0EA5E9"/>
    </linearGradient>
    <filter id="brandGlow" x="-18%" y="-24%" width="136%" height="148%">
      <feGaussianBlur stdDeviation="12" result="blur"/>
      <feColorMatrix in="blur" type="matrix" values="0 0 0 0 0.235 0 0 0 0 0.741 0 0 0 0 0.973 0 0 0 0.32 0"/>
      <feMerge>
        <feMergeNode/>
        <feMergeNode in="SourceGraphic"/>
      </feMerge>
    </filter>
  </defs>

  <rect width="1180" height="360" rx="46" fill="#000000"/>
  <g filter="url(#brandGlow)">
    <path d="M122 244V126L196 244H154C136 244 122 230 122 212Z" fill="url(#markGradient)"/>
    <path d="M128 86H216C249 86 273 101 294 130L392 264H318C296 264 278 254 265 236Z" fill="url(#markGradient)"/>
    <path d="M418 264H354L494 70L646 264H564L536 224H468L500 178H506L492 158Z" fill="url(#markGradient)"/>
  </g>

  <text x="116" y="313" font-family="Inter, Arial, sans-serif" font-size="40" font-weight="700" letter-spacing="12" fill="#FFFFFF">AI</text>
  <circle cx="230" cy="299" r="7" fill="#8B5CF6"/>
  <text x="274" y="313" font-family="Inter, Arial, sans-serif" font-size="40" font-weight="700" letter-spacing="12" fill="#FFFFFF">WEBSITES</text>
  <circle cx="604" cy="299" r="7" fill="#8B5CF6"/>
  <text x="648" y="313" font-family="Inter, Arial, sans-serif" font-size="40" font-weight="700" letter-spacing="12" fill="#FFFFFF">AUTOMATION</text>

  <text x="690" y="206" font-family="Inter, Arial, sans-serif" font-size="94" font-weight="800" letter-spacing="-5" fill="#FFFFFF">NextAura</text>
  <text x="1016" y="206" font-family="Inter, Arial, sans-serif" font-size="94" font-weight="800" letter-spacing="-5" fill="url(#aiGradient)">AI</text>
</svg>
